<svg xmlns="http://www.w3.org/2000/svg" width="1200" height="630" viewBox="0 0 1200 630">
  <defs>
    <style>
      text{font-family:&quot;Menlo&quot;,&quot;SF Mono&quot;,monospace}
    </style>
  </defs>
  <path fill="#0e0f10" d="M0 0h1200v630H0z"/>
  <rect width="980" height="460" x="110" y="85" fill="#1b1d1e" stroke="#2c2f30" rx="16"/>
  <path fill="#242728" d="M110 101a16 16 0 0 1 16-16h948a16 16 0 0 1 16 16v38H110z"/>
  <path stroke="#2c2f30" d="M110 139h980"/>
  <circle cx="146" cy="112" r="7" fill="#e24b4a"/>
  <circle cx="172" cy="112" r="7" fill="#ef9f27"/>
  <circle cx="198" cy="112" r="7" fill="#1d9e75"/>
  <text x="236" y="119" fill="#888780" font-size="21">me@acurioustale.de: ~</text>
  <text x="150" y="208" font-size="27"><tspan fill="#5dcaa5">$</tspan><tspan xml:space="preserve" fill="#c0dd97"> ./whoami.sh</tspan></text>
  <g xml:space="preserve" fill="#1d9e75" font-size="27">
    <text x="150" y="270"> __  __  ___</text>
    <text x="150" y="304">|  \/  |/ __|</text>
    <text x="150" y="338">| |\/| |\__ \</text>
    <text x="150" y="372">|_|  |_||___/</text>
  </g>
  <text x="470" y="278" fill="#9fe1cb" font-size="40">markus spitzner</text>
  <path stroke="#5f5e5a" d="M470 300h570"/>
  <g font-size="23">
    <text x="470" y="348" fill="#5dcaa5">role</text>
    <text x="640" y="348" fill="#d3d1c7">csa @ some kind of fruit company</text>
    <text x="470" y="388" fill="#5dcaa5">location</text>
    <text x="640" y="388" fill="#d3d1c7">cork, ireland</text>
    <text x="470" y="428" fill="#5dcaa5">email</text>
    <text x="640" y="428" fill="#85b7eb">me@acurioustale.de</text>
  </g>
  <text x="150" y="498" fill="#5dcaa5" font-size="27">$</text>
  <path fill="#9fe1cb" d="M173 481h13v24h-13z"/>
</svg>
